<svg width="28" height="28" viewBox="0 0 28 28" fill="none" xmlns="http://www.w3.org/2000/svg">
<path d="M15.3333 7.33332H12.6667V12.6667H7.33334V15.3333H12.6667V20.6667H15.3333V15.3333H20.6667V12.6667H15.3333V7.33332ZM14 0.666656C6.64 0.666656 0.666672 6.63999 0.666672 14C0.666672 21.36 6.64 27.3333 14 27.3333C21.36 27.3333 27.3333 21.36 27.3333 14C27.3333 6.63999 21.36 0.666656 14 0.666656ZM14 24.6667C8.12 24.6667 3.33334 19.88 3.33334 14C3.33334 8.11999 8.12 3.33332 14 3.33332C19.88 3.33332 24.6667 8.11999 24.6667 14C24.6667 19.88 19.88 24.6667 14 24.6667Z" fill="#1D2433"/>
</svg>
