<svg width="18" height="16" viewBox="0 0 30 16" fill="none" xmlns="http://www.w3.org/2000/svg">
<path d="M22.6667 13.3333H7.33333C4.38667 13.3333 2 10.9467 2 7.99999C2 5.05332 4.38667 2.66666 7.33333 2.66666H24C25.84 2.66666 27.3333 4.15999 27.3333 5.99999C27.3333 7.83999 25.84 9.33332 24 9.33332H10C9.26667 9.33332 8.66667 8.73332 8.66667 7.99999C8.66667 7.26666 9.26667 6.66666 10 6.66666H22.6667V4.66666H10C8.16 4.66666 6.66667 6.15999 6.66667 7.99999C6.66667 9.83999 8.16 11.3333 10 11.3333H24C26.9467 11.3333 29.3333 8.94666 29.3333 5.99999C29.3333 3.05332 26.9467 0.666656 24 0.666656H7.33333C3.28 0.666656 0 3.94666 0 7.99999C0 12.0533 3.28 15.3333 7.33333 15.3333H22.6667V13.3333Z" fill="black"/>
</svg>
