<svg width="18" height="14" viewBox="0 0 28 14" fill="none" xmlns="http://www.w3.org/2000/svg">
<path d="M20.6667 0.333344H15.3333V3.00001H20.6667C22.8667 3.00001 24.6667 4.80001 24.6667 7.00001C24.6667 9.20001 22.8667 11 20.6667 11H15.3333V13.6667H20.6667C24.3467 13.6667 27.3333 10.68 27.3333 7.00001C27.3333 3.32001 24.3467 0.333344 20.6667 0.333344ZM12.6667 11H7.33333C5.13333 11 3.33333 9.20001 3.33333 7.00001C3.33333 4.80001 5.13333 3.00001 7.33333 3.00001H12.6667V0.333344H7.33333C3.65333 0.333344 0.666668 3.32001 0.666668 7.00001C0.666668 10.68 3.65333 13.6667 7.33333 13.6667H12.6667V11ZM8.66667 5.66668H19.3333V8.33334H8.66667V5.66668Z" fill="#1D2433"/>
</svg>
