<svg width="24" height="30" viewBox="0 0 24 30" fill="none" xmlns="http://www.w3.org/2000/svg">
<path d="M16 8.33334V25.6267L10.3867 23.2133L9.33333 22.76L8.28 23.2133L2.66667 25.6267V8.33334H16ZM21.3333 0.333344H7.98667C6.52 0.333344 5.33333 1.53334 5.33333 3.00001H18.6667C20.1333 3.00001 21.3333 4.20001 21.3333 5.66668V23L24 24.3333V3.00001C24 1.53334 22.8 0.333344 21.3333 0.333344ZM16 5.66668H2.66667C1.2 5.66668 0 6.86668 0 8.33334V29.6667L9.33333 25.6667L18.6667 29.6667V8.33334C18.6667 6.86668 17.4667 5.66668 16 5.66668Z" fill="#1D2433"/>
</svg>
