<svg width="28" height="28" viewBox="0 0 28 28" fill="none" xmlns="http://www.w3.org/2000/svg">
<path d="M14.6667 8.66666H12.6667V16.6667L19 20.4667L20 18.8267L14.6667 15.6667V8.66666ZM21.116 0.41333L27.2587 5.54L25.552 7.58666L19.4053 2.46266L21.116 0.41333ZM6.88399 0.41333L8.59333 2.46133L2.44933 7.58666L0.742661 5.53866L6.88399 0.41333ZM14 3.33333C7.37333 3.33333 1.99999 8.70666 1.99999 15.3333C1.99999 21.96 7.37333 27.3333 14 27.3333C20.6267 27.3333 26 21.96 26 15.3333C26 8.70666 20.6267 3.33333 14 3.33333ZM14 24.6667C8.85333 24.6667 4.66666 20.48 4.66666 15.3333C4.66666 10.1867 8.85333 6 14 6C19.1467 6 23.3333 10.1867 23.3333 15.3333C23.3333 20.48 19.1467 24.6667 14 24.6667Z" fill="#1D2433"/>
</svg>
