<svg width="28" height="28" viewBox="0 0 28 28" fill="none" xmlns="http://www.w3.org/2000/svg">
<path d="M14 0.666687C6.64002 0.666687 0.666687 6.64002 0.666687 14C0.666687 21.36 6.64002 27.3334 14 27.3334C21.36 27.3334 27.3334 21.36 27.3334 14C27.3334 6.64002 21.36 0.666687 14 0.666687ZM7.42669 22.3734C8.00002 21.1734 11.4934 20 14 20C16.5067 20 20.0134 21.1734 20.5734 22.3734C18.76 23.8134 16.48 24.6667 14 24.6667C11.52 24.6667 9.24002 23.8134 7.42669 22.3734ZM22.48 20.44C20.5734 18.12 15.9467 17.3334 14 17.3334C12.0534 17.3334 7.42669 18.12 5.52002 20.44C4.16002 18.6534 3.33335 16.4267 3.33335 14C3.33335 8.12002 8.12002 3.33335 14 3.33335C19.88 3.33335 24.6667 8.12002 24.6667 14C24.6667 16.4267 23.84 18.6534 22.48 20.44ZM14 6.00002C11.4134 6.00002 9.33335 8.08002 9.33335 10.6667C9.33335 13.2534 11.4134 15.3334 14 15.3334C16.5867 15.3334 18.6667 13.2534 18.6667 10.6667C18.6667 8.08002 16.5867 6.00002 14 6.00002ZM14 12.6667C12.8934 12.6667 12 11.7734 12 10.6667C12 9.56002 12.8934 8.66669 14 8.66669C15.1067 8.66669 16 9.56002 16 10.6667C16 11.7734 15.1067 12.6667 14 12.6667Z" fill="white"/>
</svg>
