<svg width="175" height="176" viewBox="0 0 175 176" fill="none" xmlns="http://www.w3.org/2000/svg">
<path d="M1.7942 0.945953C0.532931 1.57658 0.454102 7.72527 0.454102 87.5004C0.454102 170.586 0.532931 173.424 1.95186 174.134C4.00141 175.237 86.6932 175.316 88.7428 174.212C89.6099 173.74 90.3194 172.557 90.3194 171.611C90.3194 170.35 78.5738 158.131 48.5399 128.097L6.76044 86.3179V48.8741V11.4302L88.5851 93.2549C133.518 138.188 170.725 175.001 171.277 175.001C171.75 175.001 172.775 174.449 173.405 173.74C174.509 172.636 174.667 163.728 174.667 87.5004C174.667 11.2726 174.509 2.36487 173.405 1.26126C172.302 0.157654 167.257 0 129.34 0C91.423 0 86.3779 0.157654 85.2743 1.26126C84.5648 1.89191 84.013 2.91669 84.013 3.38965C84.013 3.94145 103.011 23.3334 126.187 46.5092L168.36 88.6828V126.127V163.571L87.0085 82.2977C42.2336 37.6015 5.02619 0.7883 4.31673 0.551804C3.6861 0.315323 2.50366 0.472977 1.7942 0.945953Z" fill="#3A4F66"/>
</svg>
