<svg width="300" height="83" viewBox="0 0 1017 83" fill="none" xmlns="http://www.w3.org/2000/svg">
<path d="M493.508 1.37718C492.806 2.28968 487.823 12.1166 487.823 12.6781C487.823 12.8887 489.156 13.0291 490.841 13.0291C493.789 13.0291 493.929 12.9589 495.544 9.51945C496.456 7.55408 497.369 6.00985 497.579 6.00985C497.79 6.08005 499.194 7.62427 500.668 9.51945C503.195 12.8185 503.546 13.0291 506.704 13.0291H510.003L512.951 7.06273C514.566 3.76371 515.899 0.95603 515.899 0.815646C515.899 0.675262 514.566 0.60507 512.951 0.675262C510.073 0.745454 509.863 0.885838 508.038 4.46563L506.213 8.11561L503.265 4.46563C500.598 1.09641 500.106 0.815646 497.299 0.675262C495.544 0.60507 493.929 0.885838 493.508 1.37718Z" fill="#506277"/>
<path d="M17.8872 16.3279C11.9911 17.1 2.44497 21.5923 0.54979 24.5404C-0.0819379 25.4528 -0.222322 67.8488 0.409406 69.4632C0.690174 70.2353 1.74305 70.5863 3.91901 70.5863H7.00745V49.2479V27.8394L9.04302 26.3653C12.4122 24.049 16.6238 22.8557 22.3795 22.7856C28.6968 22.7154 30.8025 23.1365 35.2246 25.523L38.5938 27.2778L38.7342 48.7566L38.9448 70.2353L42.314 70.4459L45.613 70.6565V47.5633C45.613 24.5404 45.613 24.4702 44.0688 23.0663C38.1727 17.8721 27.3631 15.0644 17.8872 16.3279Z" fill="#506277"/>
<path d="M72.988 16.8896C70.461 17.4511 66.6707 18.7847 64.5649 19.9078L60.7044 21.8732L60.4938 46.2298L60.3534 70.5864H63.863H67.3726V59.3557V48.125H79.3052H91.2379L91.659 46.4404C91.8696 45.5279 91.9398 43.9837 91.7994 43.1414L91.5888 41.4567L79.6562 41.3164L67.7236 41.176V33.5952V26.0145L70.5312 24.6107C74.462 22.6453 87.8687 22.5751 92.8523 24.4703L96.1513 25.8039V29.2433V32.6827H99.6609H103.171V27.4183C103.171 22.2241 103.171 22.0838 100.924 20.7501C94.4667 16.7492 81.411 14.9944 72.988 16.8896Z" fill="#506277"/>
<path d="M127.246 16.8194C124.79 17.381 120.929 18.855 118.613 20.1185L114.331 22.3646L114.542 31.1386L114.752 39.9126L132.3 46.3001L149.848 52.6875L150.059 56.6183L150.269 60.5491L146.9 62.2337C143.952 63.7077 142.548 63.9183 135.81 63.9183C129.352 63.9183 127.527 63.6375 124.79 62.374C121.491 60.9 121.42 60.7596 121.42 57.6712V54.4424H117.911H114.401V59.5664V64.7606L117.77 66.5154C128.44 72.3413 141.566 72.4817 152.656 67.0067L157.218 64.7606V56.5481V48.2655L154.621 47.2828C153.147 46.7212 145.075 43.7732 136.722 40.6847L121.42 35.2097V30.7175V26.2954L124.79 24.8213C131.107 22.0136 141.144 22.0838 147.181 25.0319C150.059 26.4357 150.199 26.6463 150.199 29.5944V32.6828H153.709H157.218V27.7694C157.218 22.856 157.218 22.856 154.551 21.1012C147.953 16.7492 135.95 14.8541 127.246 16.8194Z" fill="#506277"/>
<path d="M207.757 16.5387C203.264 17.381 198.702 19.1358 195.613 21.1713L192.946 22.9261L193.157 31.3492L193.367 39.8424L211.056 46.3001L228.814 52.6875V56.7587V60.8298L225.726 62.2336C219.128 65.1115 210.073 65.1115 203.264 62.1635C200.106 60.8298 200.035 60.7596 200.035 57.601V54.4423H196.526H193.016V59.6365V64.7606L197.438 67.0067C208.037 72.4115 222.076 72.2009 232.534 66.5154L235.904 64.7606L235.693 56.4077L235.482 48.0549L218.496 41.8078C209.16 38.4386 201.229 35.4203 200.808 35.1395C200.386 34.929 200.035 32.8934 200.035 30.6473V26.5059L203.405 24.8915C208.458 22.4348 219.268 22.2242 224.603 24.4002C228.463 26.0146 228.463 26.0146 228.674 29.3838L228.884 32.6828H232.394H235.833V27.5588V22.4348L233.026 20.8204C226.077 16.8896 215.267 15.0646 207.757 16.5387Z" fill="#506277"/>
<path d="M264.893 16.8193C262.577 17.3809 258.786 18.7847 256.47 19.978C249.17 23.7683 249.802 21.452 250.012 43.6327L250.223 63.2162L253.522 65.4624C259.137 69.1826 265.314 70.8672 273.386 70.797C281.528 70.797 287.144 69.1826 293.18 65.1816L296.9 62.7249V43.4923V24.3299L293.25 21.803C286.021 16.8895 273.878 14.7838 264.893 16.8193ZM285.389 25.3827L289.53 27.4885V43.5625V59.6364L285.6 61.6018C278.089 65.322 268.613 65.322 261.103 61.6018L257.242 59.7066V43.6327V27.4885L259.629 26.1549C264.331 23.3472 266.858 22.8558 274.158 23.0664C280.476 23.2068 281.739 23.4876 285.389 25.3827Z" fill="#506277"/>
<path d="M435.179 16.6088C433.073 16.9597 428.721 18.504 425.562 20.0482L419.736 22.926V43.1413C419.736 61.6018 419.877 63.4268 421 64.4797C422.965 66.3047 429.774 69.1826 434.266 70.0951C438.758 71.0076 439.18 71.2883 439.039 73.6047C438.899 75.2191 436.512 76.9037 434.336 76.9037C433.354 76.9037 433.073 77.5354 433.073 79.7114C433.073 82.3085 433.213 82.519 435.038 82.519C437.565 82.4489 441.987 80.8344 443.672 79.2902C444.654 78.3777 445.005 77.1845 445.005 74.3066C445.005 70.6566 445.076 70.5864 446.971 70.5864C449.989 70.5864 456.166 68.5508 460.307 66.2345L463.957 64.1989V59.2855V54.4422H460.518H457.008L456.798 57.3903C456.587 60.198 456.377 60.4788 453.078 62.1634C449.989 63.7076 448.655 63.9182 442.198 63.9182C435.67 63.9182 434.406 63.7076 430.756 62.023L426.756 60.1278L426.896 43.4221L427.106 26.7164L430.616 24.9616C433.705 23.4174 435.038 23.2068 441.847 23.2068C448.655 23.2068 449.989 23.4174 453.078 24.9616C456.377 26.6462 456.587 26.927 456.798 29.6645L457.008 32.6827H460.518H463.957V27.7693V22.926L460.799 21.0309C453.85 17.0299 443.391 15.2049 435.179 16.6088Z" fill="#506277"/>
<path d="M492.947 16.9596C488.244 17.9423 483.892 19.9076 480.242 22.6451L477.996 24.3297L478.136 43.7729L478.347 63.2161L481.786 65.5324C492.736 72.8324 510.003 72.7622 521.374 65.2517L525.024 62.8651L524.884 43.3518L524.673 23.9086L521.374 21.6624C514.074 16.8192 502.493 14.8538 492.947 16.9596ZM513.443 25.3124L517.654 27.4182V43.5623V59.6363L513.794 61.6719C506.634 65.3219 496.667 65.2517 489.226 61.6017L485.366 59.7065L485.155 43.8431C484.945 25.874 484.523 27.2778 491.122 24.5403C494.701 22.9961 496.105 22.8557 502.212 22.9961C508.389 23.2067 509.793 23.4874 513.443 25.3124Z" fill="#506277"/>
<path d="M552.259 16.8895C549.662 17.3809 545.59 18.7145 543.274 19.7674L539.063 21.6626V43.5625V65.5326L543.485 67.3576C545.871 68.3402 549.17 69.4633 550.785 69.8845C559.067 71.9902 570.86 70.8671 578.651 67.2172L583.073 65.1114L583.213 59.7768L583.284 54.4422H579.844H576.335L576.124 57.7412L575.913 61.0403L571.351 62.6547C563.911 65.2518 551.697 64.5499 547.205 61.2508C545.941 60.3384 545.871 59.0749 546.012 48.2653L546.082 46.0192H558.014H569.947V42.8605V39.7019H558.014C547.135 39.7019 546.082 39.5615 546.012 38.4385C545.661 25.9443 545.731 25.7337 552.048 23.9087C558.506 22.0135 567.28 22.5049 573.316 25.0318C576.194 26.2952 576.264 26.4356 576.264 29.5241V32.6827H579.774H583.284V27.9097C583.284 25.3125 583.003 22.8558 582.722 22.4347C581.95 21.1712 576.615 18.7145 572.263 17.5914C566.297 16.0472 557.734 15.6962 552.259 16.8895Z" fill="#506277"/>
<path d="M610.378 16.6088C606.307 17.4511 598.726 20.8203 597.462 22.2943C596.831 23.0664 596.62 25.7337 596.761 31.6299L596.971 39.9125L614.659 46.3L632.418 52.6875V56.7586V60.8297L629.259 62.2336C622.942 65.0412 613.115 65.0412 606.728 62.2336C603.71 60.8999 603.639 60.7595 603.639 57.6711V54.4423H600.13H596.62V59.6365V64.9009L601.042 67.0066C605.675 69.323 613.466 71.2883 618.029 71.2883C622.591 71.2883 630.382 69.323 635.085 67.0066L639.437 64.9009V56.548V48.2654L636.84 47.2827C635.366 46.7211 627.294 43.7029 618.871 40.6846L603.569 35.1395L603.78 30.577L603.99 26.0145L608.132 24.4001C613.817 22.1539 622.31 22.1539 628.066 24.4001L632.067 26.0145L632.278 29.3837L632.488 32.6827H635.998H639.507L639.297 27.6289C639.086 22.7857 639.016 22.5049 636.77 21.0309C630.944 17.1001 618.38 14.9944 610.378 16.6088Z" fill="#506277"/>
<path d="M773.153 16.8897C768.31 17.9426 764.59 19.4868 761.15 21.6628L758.764 23.207V43.2819C758.764 65.6731 758.413 64.1289 764.028 66.9366C775.259 72.552 790.771 72.201 801.23 66.0943L804.388 64.1991V53.0386V41.8079H794.07H783.682L783.471 44.9665L783.331 48.1251H790.28H797.299L797.51 54.1617L797.72 60.128L793.86 62.0232C790.35 63.778 789.297 63.9183 781.927 63.9183C774.627 63.9183 773.504 63.7078 769.784 62.0232L765.783 60.128L765.923 43.4925L766.134 26.7868L769.643 25.032C772.872 23.3474 773.925 23.207 781.576 23.207C789.157 23.207 790.35 23.4176 793.86 25.032L797.79 26.857L797.51 29.7348L797.229 32.6829H800.809H804.459L804.248 27.5589L804.037 22.5051L799.475 20.1887C791.403 16.1878 781.857 14.9243 773.153 16.8897Z" fill="#506277"/>
<path d="M909.115 16.5385C905.044 17.3808 899.288 20.0481 896.551 22.4346L894.304 24.3298L894.445 47.2826L894.585 70.2353L897.954 70.4459L901.253 70.6565V60.4787V50.2306H914.941H928.558L928.769 60.1979L928.979 70.2353L932.349 70.4459L935.648 70.6565L935.507 46.9316L935.297 23.2067L931.927 20.9606C926.031 17.0298 916.064 15.0644 909.115 16.5385ZM924.487 24.7509L928.277 26.7163L928.488 35.2797L928.699 43.9133H914.941H901.253V35.6307V27.348L903.5 26.0144C907.501 23.5577 909.887 22.9961 915.362 22.9259C919.784 22.8557 921.258 23.1365 924.487 24.7509Z" fill="#506277"/>
<path d="M987.098 16.8897C984.641 17.381 980.781 18.855 978.465 20.1185L974.183 22.3646L974.393 31.1386L974.604 39.9126L992.152 46.3001L1009.7 52.7578L1009.91 56.6885L1010.12 60.6895L1006.75 62.1635C1000.15 65.0414 990.959 65.1116 984.641 62.3039C981.342 60.9 981.272 60.7597 981.272 57.6712V54.4424H977.763H974.253V59.777V65.0414L978.675 67.1471C984.992 70.0952 992.433 71.499 998.469 70.9375C1004.15 70.4462 1010.75 68.4106 1014.4 66.0241L1017 64.3394V56.2674V48.2655L1005.63 44.054C999.382 41.7376 991.31 38.8598 987.8 37.5261L981.272 35.2098V30.7175V26.2954L984.431 24.8915C990.678 22.0839 1000.65 22.0137 1006.19 24.681C1008.79 25.9444 1009 26.2252 1009.21 29.3838L1009.42 32.6829H1012.93H1016.37V27.4887C1016.37 22.3646 1016.3 22.2243 1014.12 20.8906C1007.31 16.7493 995.451 14.9243 987.098 16.8897Z" fill="#506277"/>
<path d="M311.641 43.5625V70.5864H330.312H348.913L348.702 67.2172L348.491 63.9182L333.611 63.7076L318.66 63.5672V40.0529V16.5386H315.15H311.641V43.5625Z" fill="#506277"/>
<path d="M359.863 17.0299C359.582 17.2404 359.371 27.4885 359.371 39.7721V62.0229L362.319 64.5498C363.934 65.9537 366.882 67.7085 368.847 68.4104C380.92 72.9027 393.414 71.4989 402.75 64.4797L404.996 62.795V39.6317V16.4683L401.697 16.6789L398.328 16.8895L398.117 38.3682L397.977 59.847L394.467 61.7422C387.939 65.322 377.2 65.322 370.532 61.7422L366.741 59.7066L366.531 38.0875L366.39 16.5385H363.372C361.688 16.5385 360.073 16.7491 359.863 17.0299Z" fill="#506277"/>
<path d="M676.639 43.5625V70.5864H687.519C703.944 70.5864 711.805 68.5509 718.333 62.5143L720.86 60.198V43.3519V26.4357L717.912 24.0491C710.612 18.153 704.295 16.5386 688.08 16.5386H676.639V43.5625ZM707.172 25.5232C713.981 28.6818 713.841 28.1905 713.841 43.7029V57.2499L710.893 59.3557C706.471 62.5845 702.119 63.5672 692.292 63.5672H683.658V43.4923V23.4174L693.696 23.6982C702.259 23.9087 704.154 24.1895 707.172 25.5232Z" fill="#506277"/>
<path d="M736.653 17.451C736.443 17.8721 736.372 30.0153 736.443 44.2643L736.653 70.2353L740.022 70.4459L743.321 70.6565V43.6326V16.5385H740.163C738.268 16.5385 736.794 16.8894 736.653 17.451Z" fill="#506277"/>
<path d="M820.322 17.0299C819.69 17.5915 819.69 67.9893 820.252 69.4634C820.532 70.2355 821.585 70.5864 823.761 70.5864H826.85V43.5625V16.5386H823.831C822.147 16.5386 820.532 16.7492 820.322 17.0299Z" fill="#506277"/>
<path d="M840.187 20.0482V23.5578H849.311H858.436V47.0721V70.5864H861.946H865.456V47.0721V23.5578H874.089C878.792 23.5578 883.074 23.277 883.565 22.9261C884.127 22.5751 884.407 21.3116 884.267 19.627L884.057 16.8896L862.157 16.679L840.187 16.5386V20.0482Z" fill="#506277"/>
<path d="M951.792 43.5625V70.5864H955.301H958.811V43.5625V16.5386H955.301H951.792V43.5625Z" fill="#506277"/>
</svg>
