<svg width="180" height="53" viewBox="0 0 180 53" fill="none" xmlns="http://www.w3.org/2000/svg">
<g clip-path="url(#clip0_825_6191)">
<path d="M78.352 0.149291C78.1533 0.248822 78.1408 1.21924 78.1408 13.8099C78.1408 26.923 78.1533 27.3709 78.3769 27.4829C78.6999 27.657 91.732 27.6695 92.055 27.4953C92.1917 27.4206 92.3035 27.234 92.3035 27.0847C92.3035 26.8857 90.4524 24.9573 85.7191 20.2171L79.1347 13.6232V7.71361V1.80399L92.0302 14.7181C99.1115 21.8096 104.975 27.6197 105.062 27.6197C105.137 27.6197 105.298 27.5326 105.398 27.4206C105.572 27.2465 105.596 25.8406 105.596 13.8099C105.596 1.7791 105.572 0.373235 105.398 0.199056C105.224 0.0248781 104.429 -4.50185e-06 98.453 -4.50185e-06C92.4774 -4.50185e-06 91.6823 0.0248781 91.5084 0.199056C91.3966 0.298587 91.3096 0.460324 91.3096 0.534972C91.3096 0.622061 94.3036 3.68262 97.9561 7.34037L104.603 13.9965V19.9061V25.8157L91.7817 12.9887C84.7252 5.9345 78.8614 0.124409 78.7496 0.0870847C78.6502 0.0497607 78.4639 0.0746434 78.352 0.149291Z" fill="#3A4F66"/>
<path d="M87.3466 38.6178C87.2223 38.7796 86.3403 40.5214 86.3403 40.6209C86.3403 40.6582 86.5763 40.6831 86.8745 40.6831C87.3963 40.6831 87.4211 40.6707 87.7069 40.061C87.8684 39.7127 88.0299 39.439 88.0671 39.439C88.1044 39.4514 88.3529 39.7251 88.6138 40.061C89.061 40.6458 89.1231 40.6831 89.6822 40.6831H90.2661L90.7878 39.6256C91.0736 39.0409 91.3096 38.5432 91.3096 38.5183C91.3096 38.4934 91.0736 38.481 90.7878 38.4934C90.2785 38.5059 90.2412 38.5308 89.9182 39.1653L89.5952 39.8122L89.0734 39.1653C88.6013 38.5681 88.5144 38.5183 88.0174 38.4934C87.7069 38.481 87.4211 38.5308 87.3466 38.6178Z" fill="#3A4F66"/>
<path d="M3.16588 41.2678C2.12232 41.4046 0.432739 42.2009 0.0973079 42.7234C-0.0145023 42.8851 -0.039349 50.3997 0.0724612 50.6858C0.122155 50.8227 0.308505 50.8849 0.693629 50.8849H1.24026V47.1027V43.3081L1.60053 43.0469C2.19686 42.6363 2.94226 42.4248 3.96097 42.4124C5.07908 42.3999 5.45178 42.4746 6.23445 42.8976L6.83077 43.2086L6.85562 47.0156L6.89289 50.8227L7.48921 50.86L8.0731 50.8973V46.8041C8.0731 42.7234 8.0731 42.711 7.79979 42.4621C6.75623 41.5415 4.84303 41.0438 3.16588 41.2678Z" fill="#3A4F66"/>
<path d="M12.9182 41.3674C12.471 41.4669 11.8001 41.7033 11.4274 41.9024L10.7441 42.2507L10.7068 46.5679L10.682 50.885H11.3032H11.9243V48.8944V46.9038H14.0363H16.1483L16.2228 46.6052C16.2601 46.4435 16.2725 46.1698 16.2477 46.0205L16.2104 45.7219L14.0984 45.697L11.9864 45.6721V44.3284V42.9848L12.4834 42.736C13.1791 42.3876 15.5519 42.3752 16.434 42.7111L17.0179 42.9475V43.5571V44.1667H17.6391H18.2602V43.2336C18.2602 42.3129 18.2602 42.2881 17.8627 42.0517C16.7197 41.3425 14.409 41.0315 12.9182 41.3674Z" fill="#3A4F66"/>
<path d="M22.5215 41.3549C22.0867 41.4544 21.4034 41.7157 20.9934 41.9396L20.2356 42.3378L20.2729 43.8929L20.3101 45.4481L23.416 46.5802L26.5218 47.7124L26.5591 48.4091L26.5963 49.1058L26 49.4044C25.4782 49.6657 25.2298 49.703 24.0371 49.703C22.8942 49.703 22.5712 49.6532 22.0867 49.4293C21.5028 49.168 21.4903 49.1432 21.4903 48.5957V48.0234H20.8692H20.248V48.9317V49.8523L20.8443 50.1633C22.7327 51.196 25.0558 51.2209 27.0187 50.2504L27.8263 49.8523V48.3967V46.9286L27.3666 46.7544C27.1057 46.6549 25.677 46.1324 24.1986 45.5849L21.4903 44.6145V43.8183V43.0345L22.0867 42.7732C23.2048 42.2756 24.9813 42.288 26.0497 42.8105C26.5591 43.0594 26.5839 43.0967 26.5839 43.6192V44.1666H27.2051H27.8263V43.2957C27.8263 42.4248 27.8263 42.4248 27.3542 42.1138C26.1864 41.3425 24.062 41.0065 22.5215 41.3549Z" fill="#3A4F66"/>
<path d="M36.7711 41.3052C35.976 41.4545 35.1685 41.7655 34.6218 42.1263L34.1497 42.4373L34.187 43.9303L34.2243 45.4357L37.355 46.5803L40.4981 47.7125V48.4341V49.1556L39.9514 49.4045C38.7836 49.9146 37.181 49.9146 35.976 49.392C35.4169 49.1556 35.4045 49.1432 35.4045 48.5833V48.0235H34.7833H34.1622V48.9441V49.8524L34.9448 50.2505C36.8208 51.2085 39.3054 51.1711 41.1565 50.1634L41.7528 49.8524L41.7156 48.3718L41.6783 46.8913L38.6718 45.7841C37.0195 45.1869 35.6157 44.6519 35.5412 44.6021C35.4666 44.5648 35.4045 44.204 35.4045 43.8059V43.0718L36.0008 42.7857C36.8953 42.3503 38.8085 42.3129 39.7527 42.6986C40.436 42.9848 40.436 42.9848 40.4732 43.5819L40.5105 44.1667H41.1317H41.7404V43.2585V42.3503L41.2435 42.0641C40.0136 41.3674 38.1004 41.0439 36.7711 41.3052Z" fill="#3A4F66"/>
<path d="M46.8837 41.3549C46.4737 41.4544 45.8029 41.7032 45.3929 41.9147C44.1009 42.5866 44.2127 42.176 44.25 46.1074L44.2872 49.5786L44.8711 49.9767C45.865 50.6361 46.9582 50.9347 48.3869 50.9222C49.828 50.9222 50.8219 50.6361 51.8903 49.9269L52.5488 49.4915V46.0826V42.6861L51.9027 42.2382C50.6231 41.3673 48.4739 40.9941 46.8837 41.3549ZM50.5113 42.8727L51.2443 43.2459V46.095V48.9441L50.5486 49.2924C49.2193 49.9518 47.5421 49.9518 46.2128 49.2924L45.5296 48.9565V46.1074V43.2459L45.952 43.0096C46.7843 42.5119 47.2316 42.4248 48.5236 42.4621C49.6417 42.487 49.8653 42.5368 50.5113 42.8727Z" fill="#3A4F66"/>
<path d="M77.0228 41.3176C76.6501 41.3798 75.8798 41.6535 75.3208 41.9272L74.2896 42.4373V46.0204C74.2896 49.2925 74.3145 49.616 74.5133 49.8026C74.8611 50.1261 76.0662 50.6362 76.8613 50.7979C77.6564 50.9596 77.7309 51.0094 77.7061 51.42C77.6812 51.7061 77.2588 52.0047 76.8737 52.0047C76.6998 52.0047 76.6501 52.1167 76.6501 52.5023C76.6501 52.9627 76.6749 53 76.9979 53C77.4452 52.9876 78.2278 52.7014 78.526 52.4277C78.6999 52.266 78.762 52.0545 78.762 51.5444C78.762 50.8974 78.7745 50.885 79.1099 50.885C79.6441 50.885 80.7374 50.5242 81.4703 50.1136L82.1164 49.7528V48.8819V48.0235H81.5076H80.8864L80.8492 48.546C80.8119 49.0437 80.7746 49.0934 80.1907 49.392C79.6441 49.6657 79.4081 49.7031 78.2651 49.7031C77.1097 49.7031 76.8861 49.6657 76.2401 49.3671L75.532 49.0312L75.5568 46.0702L75.5941 43.1092L76.2153 42.7981C76.7619 42.5244 76.9979 42.4871 78.203 42.4871C79.4081 42.4871 79.6441 42.5244 80.1907 42.7981C80.7746 43.0967 80.8119 43.1465 80.8492 43.6317L80.8864 44.1667H81.5076H82.1164V43.2958V42.4373L81.5573 42.1014C80.3274 41.3923 78.4763 41.0688 77.0228 41.3176Z" fill="#3A4F66"/>
<path d="M87.5235 41.1487C86.6912 41.3229 85.9209 41.6712 85.2749 42.1565L84.8774 42.455L84.9022 45.9013L84.9395 49.3475L85.5482 49.7581C87.4863 51.052 90.5424 51.0396 92.555 49.7083L93.201 49.2853L93.1762 45.8266L93.1389 42.3804L92.555 41.9823C91.263 41.1238 89.2131 40.7755 87.5235 41.1487ZM91.1512 42.6292L91.8966 43.0025V45.864V48.713L91.2133 49.0738C89.9461 49.7208 88.182 49.7083 86.8651 49.0614L86.1818 48.7255L86.1445 45.9137C86.1073 42.7288 86.0327 42.9776 87.2005 42.4924C87.8341 42.2187 88.0826 42.1938 89.1634 42.2187C90.2567 42.256 90.5051 42.3058 91.1512 42.6292Z" fill="#3A4F66"/>
<path d="M97.7449 41.3674C97.2853 41.4545 96.5647 41.6909 96.1548 41.8775L95.4094 42.2135V46.0951V49.9893L96.192 50.3127C96.6144 50.4869 97.1983 50.686 97.4841 50.7606C98.95 51.1339 101.037 50.9348 102.416 50.2879L103.199 49.9146L103.224 48.9691L103.236 48.0235H102.627H102.006L101.969 48.6083L101.932 49.193L101.124 49.4792C99.8072 49.9395 97.6456 49.8151 96.8505 49.2303C96.6268 49.0686 96.6144 48.8447 96.6393 46.9287L96.6517 46.5306H98.7637H100.876V45.9707V45.4109H98.7637C96.838 45.4109 96.6517 45.386 96.6393 45.1869C96.5772 42.9724 96.5896 42.935 97.7077 42.6116C98.8506 42.2757 100.404 42.3627 101.472 42.8106C101.981 43.0346 101.994 43.0595 101.994 43.6069V44.1667H102.615H103.236V43.3207C103.236 42.8604 103.186 42.425 103.137 42.3503C103 42.1264 102.056 41.6909 101.286 41.4919C100.23 41.2181 98.714 41.1559 97.7449 41.3674Z" fill="#3A4F66"/>
<path d="M108.031 41.3176C107.311 41.4669 105.969 42.0641 105.746 42.3254C105.634 42.4622 105.596 42.935 105.621 43.9801L105.659 45.4481L108.789 46.5803L111.932 47.7125V48.434V49.1556L111.373 49.4045C110.255 49.9021 108.516 49.9021 107.385 49.4045C106.851 49.1681 106.839 49.1432 106.839 48.5958V48.0235H106.218H105.596V48.9441V49.8772L106.379 50.2505C107.199 50.661 108.578 51.0094 109.386 51.0094C110.193 51.0094 111.572 50.661 112.404 50.2505L113.175 49.8772V48.3967V46.9286L112.715 46.7545C112.454 46.6549 111.025 46.12 109.535 45.585L106.826 44.6021L106.864 43.7934L106.901 42.9848L107.634 42.6986C108.64 42.3005 110.143 42.3005 111.162 42.6986L111.87 42.9848L111.908 43.5819L111.945 44.1667H112.566H113.187L113.15 43.2709C113.113 42.4125 113.1 42.3627 112.703 42.1014C111.672 41.4047 109.448 41.0315 108.031 41.3176Z" fill="#3A4F66"/>
<path d="M136.841 41.3674C135.984 41.554 135.326 41.8277 134.717 42.2134L134.294 42.4871V46.0454C134.294 50.0141 134.232 49.7404 135.226 50.2381C137.214 51.2334 139.959 51.1712 141.811 50.0888L142.37 49.7529V47.7747V45.7841H140.543H138.705L138.667 46.3439L138.643 46.9038H139.873H141.115L141.152 47.9738L141.189 49.0313L140.506 49.3672C139.885 49.6782 139.699 49.7031 138.394 49.7031C137.102 49.7031 136.903 49.6658 136.245 49.3672L135.537 49.0313L135.562 46.0827L135.599 43.1216L136.22 42.8106C136.792 42.512 136.978 42.4871 138.332 42.4871C139.674 42.4871 139.885 42.5245 140.506 42.8106L141.202 43.1341L141.152 43.6442L141.102 44.1667H141.736H142.382L142.345 43.2585L142.308 42.3627L141.5 41.9522C140.071 41.243 138.382 41.0191 136.841 41.3674Z" fill="#3A4F66"/>
<path d="M160.905 41.3051C160.185 41.4544 159.166 41.9272 158.681 42.3502L158.284 42.6861L158.309 46.7544L158.334 50.8227L158.93 50.86L159.514 50.8973V49.0933V47.2769H161.936H164.347L164.384 49.0436L164.421 50.8227L165.017 50.86L165.601 50.8973L165.576 46.6922L165.539 42.487L164.943 42.0889C163.899 41.3922 162.135 41.0438 160.905 41.3051ZM163.626 42.7607L164.297 43.1091L164.334 44.6269L164.371 46.1572H161.936H159.514V44.6891V43.221L159.911 42.9847C160.62 42.5492 161.042 42.4497 162.011 42.4372C162.794 42.4248 163.055 42.4746 163.626 42.7607Z" fill="#3A4F66"/>
<path d="M174.708 41.3674C174.273 41.4545 173.59 41.7157 173.18 41.9397L172.422 42.3378L172.459 43.893L172.496 45.4481L175.602 46.5803L178.708 47.7249L178.745 48.4216L178.783 49.1308L178.186 49.392C177.018 49.9021 175.391 49.9146 174.273 49.4169C173.689 49.1681 173.677 49.1432 173.677 48.5958V48.0235H173.055H172.434V48.969V49.9021L173.217 50.2754C174.335 50.7979 175.652 51.0467 176.72 50.9472C177.727 50.8601 178.894 50.4993 179.54 50.0763L180 49.7777V48.347V46.9287L177.987 46.1822C176.882 45.7716 175.453 45.2615 174.832 45.0251L173.677 44.6146V43.8183V43.0345L174.236 42.7857C175.341 42.288 177.105 42.2756 178.087 42.7484C178.546 42.9723 178.584 43.0221 178.621 43.5819L178.658 44.1667H179.279H179.888V43.246C179.888 42.3378 179.876 42.3129 179.491 42.0765C178.286 41.3425 176.186 41.019 174.708 41.3674Z" fill="#3A4F66"/>
<path d="M55.1576 46.0951V50.885H58.4622H61.7544L61.7172 50.2878L61.6799 49.7031L59.0461 49.6658L56.4 49.6409V45.473V41.3052H55.7788H55.1576V46.0951Z" fill="#3A4F66"/>
<path d="M63.6925 41.3922C63.6428 41.4295 63.6055 43.246 63.6055 45.4232V49.3671L64.1273 49.815C64.413 50.0638 64.9348 50.3748 65.2827 50.4992C67.4195 51.2955 69.6309 51.0467 71.2832 49.8025L71.6807 49.5039V45.3983V41.2927L71.0968 41.33L70.5005 41.3673L70.4632 45.1744L70.4384 48.9814L69.8172 49.3173C68.6618 49.9518 66.7611 49.9518 65.5808 49.3173L64.91 48.9565L64.8727 45.1246L64.8479 41.3051H64.3137C64.0155 41.3051 63.7298 41.3424 63.6925 41.3922Z" fill="#3A4F66"/>
<path d="M119.759 46.0951V50.885H121.685C124.592 50.885 125.983 50.5242 127.139 49.4543L127.586 49.0437V46.0578V43.0594L127.064 42.6364C125.772 41.5914 124.654 41.3052 121.784 41.3052H119.759V46.0951ZM125.163 42.8977C126.368 43.4575 126.343 43.3705 126.343 46.12V48.5212L125.822 48.8944C125.039 49.4667 124.269 49.6409 122.53 49.6409H121.001V46.0827V42.5244L122.778 42.5742C124.294 42.6115 124.629 42.6613 125.163 42.8977Z" fill="#3A4F66"/>
<path d="M130.381 41.4668C130.344 41.5415 130.331 43.6938 130.344 46.2194L130.381 50.8227L130.977 50.86L131.561 50.8973V46.1074V41.3051H131.002C130.667 41.3051 130.406 41.3673 130.381 41.4668Z" fill="#3A4F66"/>
<path d="M145.19 41.3923C145.078 41.4918 145.078 50.4247 145.177 50.6859C145.227 50.8228 145.413 50.885 145.798 50.885H146.345V46.0951V41.3052H145.811C145.513 41.3052 145.227 41.3425 145.19 41.3923Z" fill="#3A4F66"/>
<path d="M148.706 41.9273V42.5493H150.321H151.936V46.7172V50.885H152.557H153.178V46.7172V42.5493H154.706C155.538 42.5493 156.296 42.4996 156.383 42.4374C156.483 42.3752 156.532 42.1512 156.507 41.8526L156.47 41.3674L152.594 41.3301L148.706 41.3052V41.9273Z" fill="#3A4F66"/>
<path d="M168.459 46.0951V50.885H169.08H169.701V46.0951V41.3052H169.08H168.459V46.0951Z" fill="#3A4F66"/>
</g>
<defs>
<clipPath id="clip0_825_6191">
<rect width="180" height="53" fill="white" transform="matrix(1 0 0 -1 0 53)"/>
</clipPath>
</defs>
</svg>
